<svg id="Calque_1" data-name="Calque 1" xmlns="http://www.w3.org/2000/svg" viewBox="0 0 1442.65 1124.67"><defs><style>.cls-1,.cls-3,.cls-5{fill:#fff;}.cls-2,.cls-4{fill:none;}.cls-2,.cls-3{stroke:#fff;}.cls-2,.cls-3,.cls-4,.cls-5{stroke-miterlimit:10;}.cls-2,.cls-3,.cls-5{stroke-width:40px;}.cls-4,.cls-5{stroke:#000;}.cls-4{stroke-width:16px;}</style></defs><path class="cls-1" d="M400,847.39v160.13h63.56v40.06H295.43V847.39Z"/><path class="cls-1" d="M488.85,847.39H663.14v40.06H593.37v38h65.3V963.5h-65.3v44h76.72v40.06H488.85Z"/><path class="cls-1" d="M700.14,847.39H874.43v40.06H804.67v38H870V963.5H804.67v44h76.72v40.06H700.14Z"/><path class="cls-1" d="M911.43,847.39h78.21q75.72,0,102.42,3.46t40.59,11.37q13.9,7.92,17.38,17.63t3.48,38.14v70.12q0,27-5.09,36t-17.76,14.22q-12.66,5.13-31.28,7.17t-56.11,2H911.43ZM1016,881.64v131.69q22.59,0,27.8-4.51t5.22-24.55V906.49q0-13.59-1.74-17.43t-7.94-5.63Q1033.09,881.65,1016,881.64Z"/><path class="cls-1" d="M1414,908h-97.08V893.14q0-10.39-3.73-13.23t-12.41-2.85q-9.43,0-14.28,3.84t-4.84,11.63q0,10,5.45,15.1,5.19,5.07,29.53,12.24,69.8,20.63,87.92,33.86t18.13,42.66q0,21.39-10.06,31.53t-38.85,17q-28.82,6.87-67,6.87-42,0-71.63-7.92t-38.86-20.15Q1187,1011.48,1187,989V975.86h97.08v24.36q0,11.26,4.09,14.47t14.53,3.22q10.43,0,15.51-4.08t5.09-12.12q0-17.69-9.68-23.13-9.93-5.43-48.91-18.17t-51.64-18.68a57.17,57.17,0,0,1-21-16.07q-8.32-10.26-8.32-26.22,0-23,11.79-33.63t38.11-16.63q26.31-6,63.56-6,40.73,0,69.4,6.56t38,16.5q9.31,10,9.31,33.82Z"/><path class="cls-1" d="M27.83,1049.56l-.39-11.34,108.89-3.79-2.76-78.93,8.45,1.81,3.08,88.16Z"/><path class="cls-1" d="M19.26,915.75l.16-10.5,16.25.24L35.52,916Zm39.72.58.16-10.5,83.8,1.24-.16,10.5Z"/><path class="cls-1" d="M59.89,869.42l1-19.51L34.75,848.6l.53-10.49,26.11,1.32,1.26-25,7.87.4-1.26,25,54.41,2.73c9.38.47,14.86-1.77,15.37-11.84a49.12,49.12,0,0,0-.46-11l7.37.37c1,3.63,1.07,8.68.85,13.08-.67,13.43-6.41,20.71-19.8,20l-58.26-2.93-1,19.51Z"/><path class="cls-1" d="M64.21,791.43,66,772l-26-2.39,1-10.46,26,2.39,2.29-24.89,7.84.72L74.8,762.24l54.25,5c9.35.86,14.92-1.16,15.84-11.2a49.06,49.06,0,0,0,0-11l7.34.67c.85,3.67.72,8.72.32,13.11-1.23,13.38-7.27,20.42-20.62,19.2L73.84,772.7l-1.78,19.45Z"/><path class="cls-1" d="M156.86,710.6,34.37,694.49l1.37-10.41,122.49,16.11Z"/><path class="cls-1" d="M125.06,643.62c21.28,3.87,37-7,40.82-26.81,3.72-19.39-3.74-27.66-9.78-32.67l2-10.52c10,6.41,20.28,19.71,15.42,45.08-6,31.36-29.91,39.39-50.82,35.38-23.54-4.51-41-23-35.21-53.16,6.09-31.76,29.92-37.67,45.4-34.7,2.3.44,4.61.88,6.71,1.5Zm5.3-66.77c-16.34-2.92-31.32,5.76-35.19,26-4.08,21.25,5.92,33.21,22.77,38.8Z"/><path class="cls-1" d="M154.6,290.19l25-44.74c13.72-24.57,31.49-32,46.27-23.72C238,228.52,240.79,242.1,237.19,254c7.17-8,22.84-19.24,38.94-10.25,20.48,11.44,18.81,35.76,6.31,58.13L257.05,347.4Zm67.2-16.84c12.39-22.19,10.51-34.3-1.34-40.92-10.1-5.64-23.21-1.41-33.25,16.56l-19.86,35.57,36.73,20.51Zm33.36,60.24,20.17-36.12c9.42-16.87,10.57-34.75-4.5-43.16-13-7.28-27.79-1.81-42.23,24l-17.2,30.81Z"/><path class="cls-1" d="M231.24,154.87l6.35-8.37,12.95,9.82-6.34,8.37Zm31.66,24,6.35-8.37L336,221.11l-6.34,8.37Z"/><path class="cls-1" d="M416.74,125.6c18.79,19.13,18,39.63-3.71,61-19.48,19.13-36.15,18.34-46.87,11l7.64-7.51c10.8,5.61,23.22,1.17,34-9.43,19.48-19.13,15-34.47.09-49.66l-6.1-6.22c3.59,11.74.35,23.14-13.28,36.53-17.54,17.22-42.18,19.1-60.39.56-19.73-20.09-16.38-45.46,1.3-62.82C344.72,84,357,83.29,363.75,86c-3.26-3.62-7.22-8-8.48-9.53l7-6.92c2.12,2.15,11.09,11.9,16.73,17.64Zm-80.9,28.23c14,14.23,33.52,15.24,47.91,1.12,18.73-18.4,14.67-33.92-.59-49.47-15.51-15.78-30.07-18.63-48.06-1C317.87,121.44,322.45,140.19,335.84,153.83Z"/><path class="cls-2" d="M295.43,710.88c0-309.37,257.68-578.53,567.05-578.53h0c309.37,0,560.17,269.16,560.17,578.53"/><line class="cls-3" x1="296.26" y1="690.66" x2="1422.65" y2="690.66"/><path d="M789,691.37a72.32,72.32,0,1,1,144.63,0"/><path class="cls-4" d="M669.64,692.51c0-106.5,86.34-192.84,192.84-192.84S1055.33,586,1055.33,692.51"/><path class="cls-2" d="M552.56,692.51c0-171.16,138.76-309.92,309.92-309.92s309.93,138.76,309.93,309.92"/><path class="cls-2" d="M435.47,692.51C435.47,458,625.62,267.8,860.19,267.8S1284.9,458,1284.9,692.51"/><line class="cls-2" x1="862.48" y1="690.22" x2="862.48" y2="132.35"/><path class="cls-2" d="M1055.33,172.17c-16.93,174.31-81,349.48-171.92,488.79"/><path class="cls-2" d="M669.64,171.38c16.93,174.31,80.85,349.48,171.76,488.79"/><path class="cls-2" d="M1266.48,326.17A1134.89,1134.89,0,0,1,868.26,687.83"/><path class="cls-2" d="M452.73,325.38A1134.92,1134.92,0,0,0,851,687.05"/><path class="cls-2" d="M1399.17,549.1C1276.93,630.82,1082,683.7,862.48,683.7c-222.7,0-420-54.41-541.89-138.14"/><ellipse class="cls-5" cx="742.38" cy="634.23" rx="144.46" ry="181.6"/><ellipse class="cls-5" cx="982.79" cy="638.83" rx="144.46" ry="181.6"/><ellipse cx="683.63" cy="633.09" rx="98.15" ry="102.3"/><ellipse cx="936.47" cy="637.68" rx="98.15" ry="102.3"/></svg>